<svg width="129" height="27" viewBox="0 0 129 27" fill="none" xmlns="http://www.w3.org/2000/svg">
<path d="M6.46 20.22C5.72667 20.22 5.01333 20.1533 4.32 20.02C3.64 19.9 3.00667 19.7267 2.42 19.5C1.83333 19.26 1.32 18.98 0.88 18.66L1.78 16.22C2.20667 16.5133 2.66667 16.7667 3.16 16.98C3.65333 17.1933 4.18 17.36 4.74 17.48C5.3 17.5867 5.87333 17.64 6.46 17.64C7.43333 17.64 8.12667 17.4933 8.54 17.2C8.95333 16.8933 9.16 16.5133 9.16 16.06C9.16 15.8067 9.09333 15.5867 8.96 15.4C8.84 15.2133 8.63333 15.0533 8.34 14.92C8.06 14.7733 7.67333 14.6533 7.18 14.56L4.92 14.08C3.64 13.8133 2.68667 13.36 2.06 12.72C1.44667 12.0667 1.14 11.2133 1.14 10.16C1.14 9.25333 1.38 8.46667 1.86 7.8C2.35333 7.13333 3.02667 6.61333 3.88 6.24C4.74667 5.86667 5.74 5.68 6.86 5.68C7.51333 5.68 8.14 5.74667 8.74 5.88C9.34 6 9.89333 6.18 10.4 6.42C10.9067 6.66 11.3467 6.94667 11.72 7.28L10.82 9.56C10.2867 9.13333 9.68667 8.81333 9.02 8.6C8.35333 8.37333 7.62667 8.26 6.84 8.26C6.28 8.26 5.8 8.33333 5.4 8.48C5.01333 8.62667 4.71333 8.83333 4.5 9.1C4.3 9.36667 4.2 9.67333 4.2 10.02C4.2 10.4067 4.34 10.72 4.62 10.96C4.9 11.2 5.38667 11.3933 6.08 11.54L8.34 12.02C9.64667 12.3 10.62 12.7533 11.26 13.38C11.9 13.9933 12.22 14.8067 12.22 15.82C12.22 16.7 11.98 17.4733 11.5 18.14C11.0333 18.7933 10.3667 19.3067 9.5 19.68C8.64667 20.04 7.63333 20.22 6.46 20.22ZM13.8525 8.28V5.46H17.1125V8.28H13.8525ZM13.9725 20V10.18H16.9925V20H13.9725ZM19.3641 20V10.18H22.3241V12.02H22.1041C22.2774 11.6067 22.5174 11.2467 22.8241 10.94C23.1307 10.6333 23.4974 10.4 23.9241 10.24C24.3507 10.0667 24.8174 9.98 25.3241 9.98C26.0841 9.98 26.7174 10.16 27.2241 10.52C27.7307 10.88 28.0907 11.4333 28.3041 12.18H28.0241C28.3174 11.5 28.7641 10.9667 29.3641 10.58C29.9774 10.18 30.6774 9.98 31.4641 9.98C32.2241 9.98 32.8441 10.1333 33.3241 10.44C33.8174 10.7333 34.1841 11.1867 34.4241 11.8C34.6641 12.4 34.7841 13.1667 34.7841 14.1V20H31.7641V14.2C31.7641 13.5467 31.6574 13.0733 31.4441 12.78C31.2441 12.4733 30.8974 12.32 30.4041 12.32C30.0307 12.32 29.7041 12.4133 29.4241 12.6C29.1441 12.7733 28.9307 13.0333 28.7841 13.38C28.6507 13.7133 28.5841 14.1267 28.5841 14.62V20H25.5641V14.2C25.5641 13.5467 25.4574 13.0733 25.2441 12.78C25.0441 12.4733 24.6974 12.32 24.2041 12.32C23.8174 12.32 23.4907 12.4133 23.2241 12.6C22.9574 12.7733 22.7507 13.0333 22.6041 13.38C22.4574 13.7133 22.3841 14.1267 22.3841 14.62V20H19.3641Z" fill="#4880FF"/>
<path d="M37.3575 20V5.9H43.8175C45.3242 5.9 46.4842 6.22667 47.2975 6.88C48.1242 7.53333 48.5375 8.42667 48.5375 9.56C48.5375 10.4 48.2975 11.1133 47.8175 11.7C47.3375 12.2867 46.6775 12.68 45.8375 12.88V12.56C46.4908 12.6667 47.0442 12.8733 47.4975 13.18C47.9508 13.4867 48.2975 13.88 48.5375 14.36C48.7908 14.84 48.9175 15.3933 48.9175 16.02C48.9175 16.8467 48.7175 17.56 48.3175 18.16C47.9308 18.76 47.3708 19.22 46.6375 19.54C45.9175 19.8467 45.0508 20 44.0375 20H37.3575ZM40.3175 17.7H43.6175C43.9375 17.7 44.2242 17.6733 44.4775 17.62C44.7308 17.5667 44.9442 17.4933 45.1175 17.4C45.3042 17.3067 45.4575 17.1867 45.5775 17.04C45.6975 16.88 45.7842 16.7 45.8375 16.5C45.9042 16.3 45.9375 16.08 45.9375 15.84C45.9375 15.5867 45.9042 15.3667 45.8375 15.18C45.7842 14.98 45.6975 14.8067 45.5775 14.66C45.4575 14.5133 45.3042 14.3933 45.1175 14.3C44.9442 14.1933 44.7308 14.12 44.4775 14.08C44.2242 14.0267 43.9375 14 43.6175 14H40.3175V17.7ZM40.3175 11.7H43.2775C44.0508 11.7 44.6242 11.5533 44.9975 11.26C45.3708 10.9667 45.5575 10.5267 45.5575 9.94C45.5575 9.36667 45.3708 8.93333 44.9975 8.64C44.6242 8.34667 44.0508 8.2 43.2775 8.2H40.3175V11.7ZM51.0038 20V10.18H53.9638V12.58H53.7638C53.9238 11.78 54.2704 11.1667 54.8038 10.74C55.3504 10.3 56.0704 10.0467 56.9638 9.98L57.8438 9.92L58.0238 12.46L56.3238 12.64C55.5638 12.7067 54.9971 12.9267 54.6238 13.3C54.2638 13.6733 54.0838 14.2133 54.0838 14.92V20H51.0038ZM63.7902 20.22C62.7368 20.22 61.8168 20.0133 61.0302 19.6C60.2568 19.1867 59.6568 18.5933 59.2302 17.82C58.8035 17.0467 58.5902 16.1333 58.5902 15.08C58.5902 14.0267 58.8035 13.12 59.2302 12.36C59.6568 11.6 60.2568 11.0133 61.0302 10.6C61.8168 10.1867 62.7368 9.98 63.7902 9.98C64.8435 9.98 65.7568 10.1867 66.5302 10.6C67.3168 11.0133 67.9235 11.6067 68.3502 12.38C68.7902 13.14 69.0102 14.04 69.0102 15.08C69.0102 16.1333 68.7902 17.0467 68.3502 17.82C67.9235 18.5933 67.3168 19.1867 66.5302 19.6C65.7568 20.0133 64.8435 20.22 63.7902 20.22ZM63.7902 17.96C64.4435 17.96 64.9702 17.7267 65.3702 17.26C65.7702 16.78 65.9702 16.0533 65.9702 15.08C65.9702 14.1067 65.7702 13.3933 65.3702 12.94C64.9702 12.4733 64.4435 12.24 63.7902 12.24C63.1502 12.24 62.6302 12.4733 62.2302 12.94C61.8302 13.3933 61.6302 14.1067 61.6302 15.08C61.6302 16.0533 61.8302 16.78 62.2302 17.26C62.6302 17.7267 63.1502 17.96 63.7902 17.96ZM71.8875 20.088C71.6368 20.088 71.3968 20.0693 71.1675 20.032C70.9382 20 70.7302 19.9547 70.5435 19.896C70.3568 19.832 70.1915 19.752 70.0475 19.656L70.3435 18.808C70.4875 18.888 70.6422 18.9573 70.8075 19.016C70.9782 19.0693 71.1515 19.1093 71.3275 19.136C71.5035 19.1627 71.6742 19.176 71.8395 19.176C72.1115 19.176 72.3115 19.1467 72.4395 19.088C72.5728 19.0293 72.6395 18.9387 72.6395 18.816C72.6395 18.7147 72.6022 18.64 72.5275 18.592C72.4582 18.5387 72.3435 18.5013 72.1835 18.48L71.2715 18.36C70.8822 18.3067 70.5915 18.176 70.3995 17.968C70.2075 17.76 70.1115 17.512 70.1115 17.224C70.1115 16.968 70.1835 16.7413 70.3275 16.544C70.4715 16.3467 70.6848 16.192 70.9675 16.08C71.2502 15.968 71.6022 15.912 72.0235 15.912C72.2315 15.912 72.4342 15.928 72.6315 15.96C72.8342 15.9867 73.0208 16.032 73.1915 16.096C73.3675 16.16 73.5168 16.24 73.6395 16.336L73.3115 17.168C73.2048 17.088 73.0795 17.024 72.9355 16.976C72.7915 16.9227 72.6395 16.8827 72.4795 16.856C72.3248 16.8293 72.1755 16.816 72.0315 16.816C71.7542 16.816 71.5515 16.848 71.4235 16.912C71.3008 16.976 71.2395 17.0667 71.2395 17.184C71.2395 17.28 71.2742 17.352 71.3435 17.4C71.4128 17.448 71.5222 17.4827 71.6715 17.504L72.5435 17.64C72.9648 17.704 73.2715 17.8293 73.4635 18.016C73.6608 18.2027 73.7595 18.4587 73.7595 18.784C73.7595 19.056 73.6822 19.2907 73.5275 19.488C73.3782 19.68 73.1622 19.8293 72.8795 19.936C72.6022 20.0373 72.2715 20.088 71.8875 20.088ZM74.9048 21.44L75.7528 19.6V20.328L73.9127 15.992H75.2728L76.2648 18.736H76.2168L77.2008 15.992H78.5048L76.2328 21.44H74.9048ZM81.1859 20.088C80.5833 20.088 80.1379 19.9413 79.8499 19.648C79.5673 19.3547 79.4259 18.9333 79.4259 18.384V16.952H78.6659V15.992H79.4979V14.888H80.7059V15.992H82.0499V16.952H80.7059V18.344C80.7059 18.584 80.7646 18.7627 80.8819 18.88C80.9993 18.9973 81.1806 19.056 81.4259 19.056C81.5166 19.056 81.6099 19.048 81.7059 19.032C81.8073 19.0107 81.9059 18.984 82.0019 18.952L82.1619 19.888C82.0233 19.952 81.8713 20 81.7059 20.032C81.5406 20.0693 81.3673 20.088 81.1859 20.088ZM85.0182 20.088C84.4955 20.088 84.0555 20.0027 83.6982 19.832C83.3409 19.6613 83.0689 19.4213 82.8822 19.112C82.7009 18.7973 82.6102 18.424 82.6102 17.992C82.6102 17.5973 82.6955 17.2427 82.8662 16.928C83.0422 16.6133 83.2902 16.3653 83.6102 16.184C83.9355 16.0027 84.3169 15.912 84.7542 15.912C85.1489 15.912 85.4955 15.9947 85.7942 16.16C86.0929 16.3253 86.3249 16.5627 86.4902 16.872C86.6555 17.1813 86.7382 17.5547 86.7382 17.992V18.328H83.6342V17.632H85.7862L85.6822 17.752C85.6822 17.416 85.6022 17.168 85.4422 17.008C85.2822 16.8427 85.0609 16.76 84.7782 16.76C84.5862 16.76 84.4155 16.8027 84.2662 16.888C84.1222 16.9733 84.0102 17.096 83.9302 17.256C83.8502 17.416 83.8102 17.6133 83.8102 17.848V17.968C83.8102 18.2453 83.8555 18.4693 83.9462 18.64C84.0369 18.8107 84.1755 18.936 84.3622 19.016C84.5489 19.096 84.7862 19.136 85.0742 19.136C85.2769 19.136 85.4875 19.1093 85.7062 19.056C85.9302 19.0027 86.1275 18.9173 86.2982 18.8L86.6262 19.648C86.4075 19.7973 86.1542 19.9093 85.8662 19.984C85.5782 20.0533 85.2955 20.088 85.0182 20.088ZM87.6778 20V15.992H88.8298V16.792H88.8378C88.9231 16.6107 89.0324 16.456 89.1658 16.328C89.2991 16.1947 89.4564 16.0933 89.6378 16.024C89.8191 15.9493 90.0164 15.912 90.2298 15.912C90.5391 15.912 90.8004 15.9867 91.0138 16.136C91.2324 16.2853 91.3844 16.4933 91.4698 16.76H91.4618C91.5684 16.52 91.7391 16.32 91.9738 16.16C92.2138 15.9947 92.5044 15.912 92.8458 15.912C93.1551 15.912 93.4138 15.976 93.6218 16.104C93.8351 16.2267 93.9951 16.4187 94.1018 16.68C94.2138 16.9413 94.2698 17.2747 94.2698 17.68V20H92.9978V17.704C92.9978 17.448 92.9551 17.2587 92.8698 17.136C92.7898 17.0133 92.6378 16.952 92.4138 16.952C92.2484 16.952 92.1044 16.9893 91.9818 17.064C91.8591 17.1387 91.7631 17.2427 91.6938 17.376C91.6298 17.5093 91.5978 17.664 91.5978 17.84V20H90.3498V17.704C90.3498 17.4533 90.3018 17.2667 90.2058 17.144C90.1098 17.016 89.9604 16.952 89.7578 16.952C89.5924 16.952 89.4484 16.992 89.3258 17.072C89.2031 17.152 89.1071 17.2587 89.0378 17.392C88.9738 17.5253 88.9418 17.672 88.9418 17.832V20H87.6778Z" fill="#202224"/>
</svg>
